<svg width="140" height="140" viewBox="0 0 140 140" fill="none" xmlns="http://www.w3.org/2000/svg">
<circle cx="70" cy="70" r="69.5" stroke="white"/>
<path d="M71.5401 61.251C71.2505 61.3074 70.985 61.4281 70.7565 61.5938L66.5645 63.4283C66.3537 63.5216 66.1268 63.5667 65.8742 63.5667C64.1781 63.5667 61.4103 61.3557 59.6192 57.2635C58.673 55.1007 58.2176 52.8929 58.3383 51.0471C58.4429 49.4557 58.9756 48.3372 59.8027 47.9752L89.5181 34.9713C89.4778 37.4655 90.0877 40.3975 91.3848 43.3616C92.6625 46.2823 94.4133 48.7363 96.2944 50.4212L71.5401 61.251ZM34.3983 68.2945C35.425 70.6423 37.0712 72.3175 38.6627 72.7021C38.5452 72.863 38.4165 72.9933 38.2636 73.0625C37.1758 73.5373 34.8972 71.8235 33.5213 68.6807C32.8551 67.1568 32.5204 65.5444 32.6073 64.249C32.6733 63.203 33.0176 62.4451 33.5213 62.2246C33.6436 62.1715 33.7739 62.1442 33.922 62.1442L34.0572 62.1715C33.7723 62.6848 33.5969 63.3189 33.5471 64.0607C33.4634 65.3465 33.7659 66.851 34.3983 68.2945ZM38.7609 66.3876C39.3852 67.8117 40.1657 69.0766 41.0202 70.1515L39.5703 70.7871L39.3498 70.8274C38.5114 70.8274 37.1018 69.5899 36.1942 67.5124C35.6921 66.3651 35.4395 65.1517 35.5038 64.1878C35.5489 63.4733 35.771 62.9439 36.0815 62.8104L37.5282 62.1747C37.7454 63.549 38.1445 64.9812 38.7609 66.3876ZM45.3264 63.512C46.8326 66.9605 49.351 69.2777 51.5926 69.2874C51.3705 69.6527 51.0985 69.9166 50.7783 70.0582C50.5788 70.1435 50.3567 70.1901 50.1185 70.1901C48.4772 70.1901 45.7947 68.0435 44.0567 64.0736C43.1363 61.9704 42.6937 59.8301 42.8112 58.0391C42.911 56.4991 43.4259 55.4193 44.2225 55.0701C44.422 54.9816 44.6441 54.9366 44.8822 54.9366C45.0287 54.9366 45.1832 54.9623 45.3441 54.9977C44.7004 55.6977 44.3061 56.734 44.2225 58.0391C44.113 59.695 44.5057 61.6405 45.3264 63.512ZM49.9029 61.5117C50.7815 63.5216 51.8838 65.3094 53.1004 66.7786L52.0303 67.2469C50.899 67.7425 48.5431 65.9789 47.1206 62.7299C45.719 59.5292 45.9733 56.5667 47.1351 56.0582L48.1972 55.5915C48.453 57.4646 49.013 59.4793 49.9029 61.5117ZM58.813 46.2904C57.3937 47.0225 56.5296 48.651 56.3815 50.92C56.2415 53.0715 56.7533 55.6012 57.8234 58.0455C59.7496 62.4499 63.0613 65.5219 65.8742 65.5251C66.3071 65.5251 66.7158 65.4382 67.1068 65.303C66.756 66.0223 66.2877 66.5566 65.702 66.814C65.393 66.946 65.0551 67.0152 64.6946 67.0152C62.0105 67.0152 58.4204 63.4396 56.3461 58.6957C53.6636 52.563 54.3797 47.3412 56.7307 46.3145C57.0381 46.1745 57.3776 46.1117 57.7397 46.1117C58.0825 46.1117 58.4445 46.1745 58.813 46.2904ZM100.863 28.3607C100.675 28.4058 100.482 28.4363 100.296 28.4959C100.134 28.5458 99.9939 28.5924 99.8588 28.6487L99.7719 28.6938L99.7671 28.697L99.6464 28.7453L99.4146 28.8901C96.9606 30.451 96.7031 35.2175 98.8402 40.1014C100.721 44.3996 103.901 47.4007 106.574 47.4007C106.88 47.4007 107.176 47.3621 107.461 47.2865L107.728 47.2124L107.852 47.1577L107.947 47.1207C108.077 47.0628 108.204 46.9936 108.35 46.9051C108.521 46.8101 108.684 46.7023 108.845 46.5945C108.484 47.6196 107.913 48.3437 107.184 48.6623C106.876 48.7959 106.537 48.8618 106.176 48.8618C103.494 48.8618 99.9038 45.2878 97.8296 40.5439C95.1438 34.4097 95.8599 29.1894 98.2126 28.1628C98.5199 28.0244 98.8595 27.9584 99.2199 27.9584C99.7397 27.9584 100.293 28.1065 100.863 28.3607ZM109.805 35.3028C111.501 39.1777 110.438 43.5258 107.383 45.2009L107.333 45.2267L107.179 45.3168L107.103 45.3441L107.062 45.3602L107.053 45.3651L107.033 45.3731C105.522 45.8591 102.556 43.7044 100.636 39.3161C98.7742 35.0614 99.0767 31.3232 100.527 30.5074L100.548 30.4945L100.551 30.4913L100.605 30.4688L100.649 30.4462L100.839 30.3835L100.892 30.3658C101.466 30.1743 102.071 30.0745 102.689 30.0745C105.576 30.0745 108.436 32.1761 109.805 35.3028ZM82.671 93.237L73.476 95.8214V81.3226C74.7038 81.2888 76.0427 81.2147 77.3107 81.0683L82.671 93.237ZM61.6356 93.2563L66.9813 81.1214C68.1045 81.234 69.2664 81.2936 70.3413 81.3226V95.8021L61.6356 93.2563ZM111.599 34.5191C110.171 31.2492 107.35 28.9127 104.284 28.2931C102.614 26.8448 100.848 26 99.2199 26C98.5875 26 97.9841 26.1223 97.4289 26.3669L92.7815 28.3977C91.211 29.0865 90.2004 30.649 89.7659 32.7265L61.1512 45.2444C59.999 44.5524 58.8372 44.1501 57.7397 44.1501C57.1041 44.1501 56.5022 44.2724 55.9455 44.5186H55.9438L51.2997 46.5478C49.116 47.5069 48.0089 50.1476 48.0443 53.5221L47.4392 53.7844C46.5751 53.2839 45.7078 52.9782 44.8822 52.9782C44.3721 52.9782 43.8861 53.0763 43.4356 53.2743L39.9372 54.8046C38.4245 55.4676 37.5073 57.1154 37.3576 59.4407C37.3432 59.6547 37.3641 59.8881 37.3625 60.1101L35.8901 60.7538C35.2319 60.3933 34.5657 60.1858 33.922 60.1858C33.5052 60.1858 33.1061 60.2678 32.7376 60.4271L30.1034 61.5809C28.8788 62.1152 28.1369 63.4283 28.0179 65.2756C27.91 66.8945 28.293 68.7917 29.0928 70.6166C30.5684 73.9862 33.0337 76.252 35.2303 76.252C35.647 76.252 36.0461 76.1715 36.4179 76.0106L39.0489 74.8552C39.9999 74.4416 40.6549 73.555 40.959 72.3175L42.4121 71.6835C43.7848 72.9435 45.2604 73.6805 46.6185 73.6805C47.1303 73.6805 47.6162 73.5791 48.0652 73.3828L51.5652 71.8524C52.7802 71.3214 53.5703 70.129 53.9275 68.5552L54.5133 68.3009C56.3188 70.0083 58.2643 71.0092 60.0473 71.0092C60.6813 71.0092 61.2831 70.8837 61.8399 70.6407L66.4857 68.6051C68.0273 67.9324 69.0668 66.4182 69.5061 64.2812L69.947 64.0865V73.172C66.0689 73.2943 61.2783 73.851 61.2783 75.8561V78.6255C61.2783 79.5508 62.3098 80.1655 63.7951 80.5743L53.8326 103.192C51.5025 103.332 49.7919 104.482 49.7919 106C49.7919 107.62 51.7326 108.845 54.3073 108.845C56.8804 108.845 58.8211 107.62 58.8211 106C58.8211 105.037 58.1259 104.221 57.0268 103.716L60.839 95.0635L70.3413 97.8442V108.917C68.5889 109.303 67.3916 110.319 67.3916 111.587C67.3916 113.207 69.334 114.429 71.9071 114.429C74.4818 114.429 76.4225 113.207 76.4225 111.587C76.4225 110.319 75.2268 109.303 73.476 108.917V97.857L83.4691 95.0506L87.2861 103.716C86.1887 104.221 85.4903 105.037 85.4903 106C85.4903 107.62 87.4326 108.845 90.0073 108.845C92.582 108.845 94.5211 107.62 94.5211 106C94.5211 104.482 92.8121 103.332 90.4804 103.192L80.4599 80.4391C81.7022 80.0336 82.5358 79.4559 82.5358 78.6255V75.8561C82.5358 73.851 77.7452 73.2943 73.8671 73.172V63.174C73.8671 62.9134 73.814 62.6655 73.7222 62.437L98.0935 51.7729C99.2537 52.4729 100.424 52.8559 101.529 52.8559C102.163 52.8559 102.765 52.7352 103.323 52.4922L107.969 50.4566C110.013 49.5635 111.11 47.1867 111.208 44.1131C112.806 41.4772 113.056 37.8421 111.599 34.5191Z" fill="white"/>
<path d="M101.924 33.5452C103.866 32.2192 106.108 32.5024 107.722 34.1776C106.397 31.7043 103.705 30.9158 101.109 31.7638C101.38 32.3576 101.653 32.9514 101.924 33.5452Z" fill="white"/>
<path d="M86.4873 38.6689L62.293 48.942C61.7958 49.1544 61.5625 49.7322 61.7749 50.2262C61.9326 50.5995 62.2962 50.8264 62.676 50.8264L63.0606 50.7476L87.2533 40.4728C87.7521 40.262 87.9838 39.6843 87.773 39.1871C87.5606 38.6882 86.9861 38.4581 86.4873 38.6689Z" fill="white"/>
<path d="M71.9071 114.429C69.7556 114.429 68.045 113.574 67.5429 112.348C68.045 111.122 69.7556 110.267 71.9071 110.267C74.0602 110.267 75.7707 111.122 76.2728 112.348C75.7707 113.574 74.0602 114.429 71.9071 114.429ZM90.0073 108.845C87.8751 108.845 86.1774 108.005 85.656 106.796C86.1774 105.588 87.8751 104.749 90.0073 104.749C92.1379 104.749 93.8356 105.588 94.3553 106.796C93.8356 108.005 92.1379 108.845 90.0073 108.845ZM54.3073 108.845C52.1767 108.845 50.479 108.005 49.9576 106.796C50.479 105.588 52.1767 104.749 54.3073 104.749C56.4379 104.749 58.1356 105.588 58.6553 106.796C58.1356 108.005 56.4379 108.845 54.3073 108.845Z" fill="white"/>
</svg>
