<svg width="140" height="140" viewBox="0 0 140 140" fill="none" xmlns="http://www.w3.org/2000/svg">
<circle cx="70" cy="70" r="69.5" stroke="white"/>
<path d="M39.8245 73.8905C63.3994 73.8012 86.9723 73.5508 110.547 73.4615C111.575 73.4577 111.578 72.4071 110.547 72.411C86.9723 72.5003 63.3994 72.7507 39.8245 72.84C38.7968 72.8438 38.7942 73.8943 39.8245 73.8905Z" fill="white"/>
<path d="M42.7012 84.1167C64.5992 84.0216 86.4951 83.755 108.393 83.6599C109.348 83.6558 109.35 82.5369 108.393 82.541C86.4951 82.6361 64.5992 82.9027 42.7012 82.9979C41.7467 83.002 41.7442 84.1209 42.7012 84.1167Z" fill="white"/>
<path d="M109.304 83.3025C110.45 81.4266 111.254 79.5007 111.652 77.4941C111.961 75.9316 112.408 74.117 111.237 72.6711C110.753 72.0741 109.373 72.6043 109.857 73.2013C111.029 74.6486 110.214 77.0732 109.784 78.5783C109.346 80.1079 108.644 81.58 107.763 83.0234C107.381 83.6506 108.925 83.9234 109.304 83.3025Z" fill="white"/>
<path d="M41.9859 83.7398C40.6985 81.8958 39.7482 79.9904 39.197 77.9907C38.7682 76.4336 38.1828 74.628 39.2415 73.139C39.6786 72.5241 41.0968 73.0104 40.6597 73.6253C39.6005 75.1157 40.5997 77.5211 41.1449 79.0166C41.6989 80.5366 42.5128 81.9902 43.5032 83.409C43.9332 84.0255 42.4117 84.3501 41.9859 83.7398Z" fill="white"/>
<path d="M45.186 84.1027C45.9837 88.8706 48.5993 93.2902 49.7124 97.992C50.8779 102.916 52.3026 107.763 53.9828 112.623C54.215 113.295 55.7774 113.01 55.5452 112.338C53.9369 107.686 52.4657 103.041 51.4136 98.3188C50.3394 93.4992 47.6212 88.9767 46.8062 84.1027C46.6928 83.4248 45.0715 83.4173 45.186 84.1027Z" fill="white"/>
<path d="M104.913 83.4815C102.27 88.0209 100.357 92.7241 99.3132 97.538C98.2535 102.423 97.6387 107.274 95.8812 112.09C95.6415 112.747 97.1822 113.028 97.4224 112.369C99.1512 107.632 99.7958 102.877 100.804 98.0682C101.831 93.1671 103.765 88.3791 106.454 83.7606C106.822 83.1285 105.277 82.8554 104.913 83.4815Z" fill="white"/>
<path d="M54.337 113.085C57.1787 114.153 74.4865 114.8 74.4865 114.8L86.8184 113.974L96.6363 112.806C96.6363 112.806 96.3067 111.819 95.7245 111.956C90.1307 113.269 74.4865 113.974 74.4865 113.974C74.4865 113.974 58.087 113.284 55.1436 112.178C54.2491 111.841 53.4431 112.749 54.337 113.085Z" fill="white"/>
<path d="M63.2322 53.5433C61.6744 54.8638 60.7597 56.3163 60.3623 57.9692C60.0208 59.3898 59.5227 61.6614 60.3005 63.0366C60.4555 63.3104 60.8316 63.4733 61.2834 63.4036C62.6835 63.1872 64.2939 62.1163 65.288 61.4608C66.6124 60.5874 67.6231 59.5593 67.9832 58.3358C68.4557 56.7306 68.2922 52.9788 64.6227 53.1913C63.6062 53.2502 63.5966 54.3011 64.6227 54.2419C67.7174 54.0626 66.3546 58.6895 65.6652 59.4728C64.7995 60.4558 62.5684 62.1265 60.8588 62.3905C61.1865 62.5127 61.5141 62.6349 61.8417 62.7575C61.2216 61.6608 61.626 59.9057 61.8092 58.7609C62.0703 57.1301 62.822 55.5918 64.3621 54.286C64.9849 53.7579 63.8619 53.0092 63.2322 53.5433Z" fill="white"/>
<path d="M65.1786 53.5167C63.7914 46.7022 76.6694 43.6102 81.3245 38.632C80.8285 38.5438 80.332 38.4555 79.8355 38.367C79.2894 41.8764 78.6917 45.6317 75.3045 48.5207C73.6812 49.9053 71.6328 50.8575 69.0895 51.3813C67.4231 51.7245 65.9319 52.0284 64.6853 52.8647C63.9651 53.3479 65.0945 54.0913 65.8158 53.6074C67.6516 52.3758 70.6696 52.3342 72.8682 51.431C74.6806 50.6866 76.1659 49.6301 77.3337 48.4629C80.3187 45.4801 80.8946 41.832 81.4337 38.367C81.5189 37.821 80.3288 37.6911 79.9447 38.1019C75.0866 43.2967 62.109 46.2876 63.5804 53.5167C63.7152 54.1771 65.315 54.1859 65.1786 53.5167Z" fill="white"/>
<path d="M64.51 52.8532C62.0689 52.9656 58.3941 53.0146 56.2897 52.0121C54.2616 51.0456 53.5999 48.3639 52.9675 46.8564C51.9031 44.3183 50.8078 41.8538 48.1888 39.8014C47.9294 40.0941 47.6705 40.3869 47.411 40.6793C50.9623 41.0732 54.2882 42.5251 57.2029 43.8715C60.6114 45.4463 62.5804 47.4087 63.8227 50.0091C64.1301 50.652 65.6735 50.3775 65.364 49.73C64.1621 47.2136 62.3486 45.1433 59.1415 43.5077C55.9104 41.8594 51.9266 40.1197 47.8362 39.6666C47.0376 39.578 46.5278 40.1284 47.0584 40.5445C50.7231 43.4159 51.0582 47.2934 53.138 50.6558C53.8423 51.7943 54.5482 52.6582 56.3025 53.1796C58.7942 53.9199 61.8287 54.0274 64.51 53.9037C65.5302 53.8568 65.5382 52.8059 64.51 52.8532Z" fill="white"/>
<path d="M65.3278 48.7273C61.1266 43.1676 59.6189 36.9418 61.0216 30.7996C60.5347 30.8417 60.0483 30.8833 59.5614 30.925C61.8655 33.1945 64.2309 35.4952 65.7716 38.0434C67.4071 40.7482 67.6543 43.5314 67.6239 46.4113C67.617 47.0875 69.2152 47.0882 69.2222 46.4113C69.2536 43.4302 68.9979 40.5633 67.3128 37.764C65.7231 35.1236 63.3284 32.7459 60.9412 30.3948C60.6034 30.0622 59.5912 30.0366 59.4809 30.5205C58.009 36.9635 59.5369 43.4204 63.948 49.2579C64.4056 49.8633 65.7844 49.3318 65.3278 48.7273Z" fill="white"/>
<path d="M67.7395 38.5288C67.1908 34.4646 69.8748 30.8326 72.8454 27.3872C72.3851 27.3872 71.9253 27.3872 71.465 27.3872C73.6381 30.5699 75.7685 34.1018 74.1938 37.5815C73.0164 40.1837 70.9802 43.1322 67.8653 44.9875C67.1019 45.4424 68.2345 46.1833 68.9958 45.7302C72.4549 43.6698 74.7313 40.3714 75.9134 37.4502C77.3748 33.8388 75.0824 30.1336 72.8454 26.857C72.5939 26.4897 71.7383 26.5401 71.465 26.857C68.3645 30.4537 65.5691 34.2881 66.1413 38.5288C66.2313 39.1969 67.8306 39.2029 67.7395 38.5288Z" fill="white"/>
<path d="M66.1453 53.5667C71.046 52.0774 75.5344 54.5791 79.1885 56.421C82.1862 57.9324 85.1595 59.0487 88.9217 59.4731C88.8578 59.1531 88.7944 58.833 88.731 58.513C85.1824 59.7708 81.2555 59.5708 77.5242 58.7794C74.5499 58.1488 69.94 57.177 68.0376 55.4237C67.4457 54.8781 66.059 55.402 66.6578 55.9539C68.9028 58.0231 73.5451 59.0347 77.0996 59.7925C81.2438 60.6763 85.6208 60.8084 89.5376 59.4203C90.1071 59.2182 90.0335 58.5375 89.3463 58.4601C83.866 57.842 80.5235 55.465 76.0442 53.5803C72.7897 52.2108 68.9662 51.557 65.3388 52.6597C64.4065 52.943 65.2173 53.8489 66.1453 53.5667Z" fill="white"/>
<path d="M63.4259 53.1088C58.8245 53.4449 53.8929 53.8539 49.6795 55.1906C45.303 56.5787 41.9893 59.0933 37.3044 60.1015C36.6283 60.2471 36.4648 61.0322 37.3044 61.1145C42.3143 61.6065 47.8175 62.0827 52.7204 60.9737C56.676 60.079 60.2342 58.3453 62.7194 56.1427C63.3326 55.5996 61.9459 55.075 61.3396 55.6125C58.9817 57.702 55.3841 59.3937 51.5659 60.1148C47.1324 60.952 42.2062 60.5413 37.7295 60.1015C37.7295 60.4394 37.7295 60.7769 37.7295 61.1145C41.7816 60.2426 44.8001 58.3527 48.346 56.8872C52.7971 55.0477 58.2881 54.5347 63.4259 54.1593C64.437 54.0854 64.4482 53.0342 63.4259 53.1088Z" fill="white"/>
<path d="M75.4737 50.0979C81.6183 44.861 93.2764 46.2526 101.974 44.9688C101.714 44.6764 101.456 44.3837 101.196 44.0909C97.5356 46.2155 93.7351 48.2283 89.7629 50.0968C86.0449 51.846 81.9886 53.9964 77.1763 53.8577C76.1481 53.8283 76.1503 54.8789 77.1763 54.9083C82.0041 55.0473 85.9927 53.1276 89.7629 51.3806C94.1351 49.3545 98.3172 47.1609 102.327 44.834C102.959 44.4667 102.278 43.8483 101.549 43.9561C92.2343 45.3306 80.6727 43.9607 74.0933 49.5677C73.4658 50.1028 74.8536 50.6263 75.4737 50.0979Z" fill="white"/>
<path d="M54.2183 49.8391C53.3281 47.7675 51.1406 46.2589 48.3352 45.2063C44.9443 43.9337 39.9093 43.6553 37.6239 41.4173C37.1737 40.9761 36.1902 41.1561 36.1348 41.6824C35.8008 44.8603 38.2722 48.5147 41.2076 50.9912C43.948 53.3031 47.95 54.7738 52.3233 55.2497C53.3291 55.359 53.7622 54.347 52.7479 54.2366C48.6863 53.7947 45.0332 52.4976 42.4782 50.3465C39.7223 48.0266 37.4209 44.6488 37.7331 41.6824C37.2365 41.7706 36.7406 41.8593 36.244 41.9475C37.8364 43.5068 40.2679 44.1424 42.8575 44.7769C47.0055 45.7935 51.367 47.0688 52.677 50.1185C52.9562 50.7681 54.4985 50.4918 54.2183 49.8391Z" fill="white"/>
<path d="M45.1765 44.0664C43.3092 42.5071 41.8399 40.9954 41.0365 39.0578C40.4036 37.5321 39.9236 36.019 38.9279 34.5717C38.6269 34.8287 38.3265 35.0858 38.0255 35.3431C42.9837 36.7141 49.1204 37.5191 51.4682 41.0959C51.8747 41.715 53.2518 41.1806 52.8485 40.5657C50.3222 36.7172 43.7786 35.8033 38.4501 34.3301C37.7293 34.1308 37.3004 34.7422 37.5481 35.1019C38.8656 37.0166 39.1384 39.1363 40.3701 41.0675C41.256 42.457 42.6385 43.6336 44.0465 44.8091C44.6821 45.34 45.8062 44.592 45.1765 44.0664Z" fill="white"/>
<path d="M53.3781 40.7894C49.8779 37.3801 49.1353 33.3251 48.5226 29.3274C48.0677 29.4514 47.6132 29.575 47.1583 29.699C51.2007 31.7647 54.9257 34.0464 58.3454 36.5513C59.0337 37.0555 60.161 36.3107 59.4753 35.8085C56.0556 33.3034 52.3307 31.0219 48.2882 28.9559C47.8141 28.7139 46.8461 28.8193 46.9244 29.3274C47.5642 33.5023 48.3431 37.759 51.9983 41.3196C52.5704 41.8771 53.9556 41.3518 53.3781 40.7894Z" fill="white"/>
<path d="M76.5459 35.7967C78.5943 31.6636 86.0575 30.6705 90.8479 28.3348C90.4568 28.1373 90.0658 27.9394 89.6742 27.7416C88.369 30.4702 86.9413 33.1718 85.3548 35.8356C84.5264 37.2272 83.6638 38.6108 82.7518 39.9796C81.9324 41.2087 81.1823 42.5117 79.2511 43.154C78.3332 43.4593 79.1409 44.3659 80.0577 44.0613C83.3719 42.9586 84.4688 40.0482 85.7762 37.9528C87.8086 34.6951 89.6087 31.3796 91.2155 28.021C91.411 27.612 90.6113 27.1501 90.0413 27.4278C84.8018 29.9824 77.2469 30.9926 75.0046 35.5173C74.6855 36.1616 76.2283 36.4379 76.5459 35.7967Z" fill="white"/>
<path d="M82.9788 42.098C88.343 39.3355 95.6298 39.1481 101.127 36.512C100.804 36.2367 100.482 35.9619 100.159 35.687C95.2372 38.7402 92.1196 43.3247 85.5295 45.0493C84.5855 45.2962 84.9973 46.3128 85.9547 46.062C92.9155 44.2404 96.0922 39.6538 101.289 36.4297C101.933 36.0298 101.065 35.2471 100.32 35.6047C94.7124 38.294 87.3499 38.522 81.8483 41.3553C81.0396 41.7717 82.1775 42.5105 82.9788 42.098Z" fill="white"/>
<path d="M66.3828 58.4104C67.0071 63.2498 66.1585 68.0308 63.8495 72.6447C63.5278 73.2887 65.0706 73.5643 65.3908 72.9242C67.7413 68.2269 68.6166 63.3381 67.981 58.4104C67.8947 57.7419 66.2959 57.7359 66.3828 58.4104Z" fill="white"/>
<path d="M80.9889 60.5111C84.2376 64.2178 86.3457 68.2406 87.2061 72.4823C87.3398 73.1428 88.9396 73.1515 88.8043 72.4823C87.905 68.0466 85.7687 63.8596 82.3693 59.981C81.8557 59.3951 80.4743 59.9235 80.9889 60.5111Z" fill="white"/>
<path d="M67.4464 61.0405C70.1969 61.0167 72.801 60.5829 74.7966 59.2784C75.527 58.8012 74.3971 58.0581 73.6667 58.5357C71.9614 59.6503 69.784 59.9697 67.4464 59.99C66.4192 59.9991 66.416 61.0496 67.4464 61.0405Z" fill="white"/>
<path d="M67.8378 62.5262C72.0204 62.697 76.701 61.7852 80.0861 60.1649C80.9097 59.771 80.1127 58.8587 79.2795 59.2579C76.1001 60.7798 71.7694 61.6364 67.8378 61.4756C66.8107 61.4336 66.8144 62.4841 67.8378 62.5262Z" fill="white"/>
<path d="M67.3567 64.9524C69.6789 65.366 72.3187 64.7556 74.5839 64.3995C77.416 63.9537 80.1249 63.3469 82.672 62.4136C83.5707 62.0845 82.7658 61.1768 81.8654 61.5067C79.7014 62.2995 77.4223 62.8405 75.0282 63.2453C72.8983 63.6053 69.9474 64.3249 67.7818 63.9397C66.7877 63.7625 66.3636 64.7759 67.3567 64.9524Z" fill="white"/>
<path d="M67.1822 66.7779C72.8815 67.9201 80.7661 66.7488 84.6312 63.6469C85.2779 63.128 84.1539 62.3803 83.5012 62.9038C80.0017 65.7126 72.7739 66.8003 67.6068 65.7652C66.6207 65.5673 66.1993 66.5811 67.1822 66.7779Z" fill="white"/>
<path d="M66.3749 68.9171C73.047 70.7962 80.6908 69.939 85.9777 66.6491C86.7262 66.1833 85.5947 65.4413 84.8478 65.906C80.1378 68.8369 73.1642 69.6949 67.1815 68.0102C66.2465 67.7469 65.4314 68.6514 66.3749 68.9171Z" fill="white"/>
<path d="M66.0832 70.8548C72.5645 73.6282 80.13 72.1735 86.7595 70.4433C87.704 70.1968 87.2922 69.1802 86.3349 69.4302C80.1188 71.0522 73.0083 72.5661 66.8897 69.9478C66.0256 69.5776 65.2233 70.4867 66.0832 70.8548Z" fill="white"/>
<path d="M64.8847 72.7211C67.5735 73.4558 70.4434 73.6005 73.3202 73.7132C74.3479 73.7538 74.3441 72.7029 73.3202 72.6627C70.5755 72.5552 67.8745 72.4091 65.3099 71.7081C64.3611 71.4489 63.9471 72.4648 64.8847 72.7211Z" fill="white"/>
<path d="M83.4969 73.4295C85.0398 73.1655 86.5251 72.802 87.964 72.3513C88.8921 72.0607 88.0817 71.1544 87.1574 71.4444C85.8421 71.8565 84.4815 72.1752 83.0718 72.4165C82.0772 72.5866 82.4991 73.6004 83.4969 73.4295Z" fill="white"/>
<path d="M86.7523 52.9426C91.6973 51.8826 97.1062 52.8803 102.087 53.4073C101.97 53.1149 101.852 52.8221 101.734 52.5294C99.1429 53.9956 95.1004 54.4998 91.88 55.099C88.3202 55.7612 84.7327 56.2234 81.0232 56.2504C79.9955 56.2581 79.9929 57.3086 81.0232 57.3009C85.209 57.2705 89.2461 56.7077 93.2502 55.9321C96.5388 55.2948 100.208 54.7747 102.865 53.2721C103.294 53.0291 103.093 52.4559 102.512 52.3942C97.241 51.8367 91.5651 50.8069 86.3272 51.9295C85.3539 52.1383 85.7705 53.1531 86.7523 52.9426Z" fill="white"/>
<path d="M44.7897 51.9093C39.7771 50.0681 34.1924 51.3914 28.8015 50.9537C28.2097 50.9057 27.7899 51.4379 28.1111 51.744C32.6821 56.0932 39.7707 57.4866 47.4731 56.8037C48.4875 56.7141 48.0554 55.7017 47.048 55.791C40.1271 56.4042 33.6037 55.1267 29.4914 51.2138C29.2613 51.4772 29.0312 51.7405 28.8015 52.0042C33.8322 52.4128 39.3126 51.1007 43.9831 52.8163C44.8819 53.1465 45.689 52.2395 44.7897 51.9093Z" fill="white"/>
<path d="M51.5842 84.2672C53.8109 94.0765 56.7537 103.8 60.4031 113.412C60.6575 114.082 62.1881 113.798 61.9332 113.126C58.2833 103.514 55.341 93.7906 53.1143 83.9809C52.9593 83.2986 51.4297 83.5885 51.5842 84.2672Z" fill="white"/>
<path d="M62.155 84.1041C62.9254 94.1566 63.7629 104.245 67.1746 114.089C67.4026 114.748 68.9438 114.469 68.7152 113.81C65.3355 104.056 64.5167 94.0638 63.7533 84.1041C63.7016 83.431 62.1034 83.4272 62.155 84.1041Z" fill="white"/>
<path d="M75.2217 84.1117C74.3519 89.0579 73.482 94.0217 73.5545 99.0076C73.586 101.184 73.8098 103.358 74.2731 105.515C74.8686 108.285 75.7531 110.987 75.3567 113.797C75.2583 114.496 76.9457 114.492 77.0435 113.797C77.3685 111.492 76.8675 109.251 76.3131 106.978C75.6676 104.33 75.2841 101.689 75.2414 99.0076C75.1615 94.0224 76.0393 89.0569 76.9086 84.1117C77.0312 83.4153 75.3432 83.4208 75.2217 84.1117Z" fill="white"/>
<path d="M85.9793 83.4639C84.6351 88.3434 82.9538 93.2403 82.0717 98.1717C81.1582 103.277 82.412 108.423 81.5469 113.532C81.4278 114.235 83.024 114.229 83.142 113.532C83.971 108.636 82.797 103.711 83.5589 98.8172C84.3448 93.7689 86.1441 88.7423 87.5175 83.7572C87.7084 83.0636 86.1718 82.7666 85.9793 83.4639Z" fill="white"/>
<path d="M95.4229 83.8324C90.6666 93.1818 88.3363 102.968 88.5095 112.825C88.5212 113.501 90.1194 113.503 90.1077 112.825C89.9362 103.055 92.2504 93.3775 96.9641 84.1115C97.2912 83.4689 95.7484 83.1933 95.4229 83.8324Z" fill="white"/>
</svg>
