<svg width="202" height="58" viewBox="0 0 202 58" fill="none" xmlns="http://www.w3.org/2000/svg">
<path d="M153.412 45.2386C152.741 45.2386 152.145 45.0701 151.623 44.7331C151.112 44.3962 150.712 43.9276 150.421 43.3273C150.14 42.7166 150 42.0163 150 41.2265V37.941C150 37.1513 150.14 36.451 150.421 35.8402C150.712 35.2295 151.117 34.7609 151.639 34.4344C152.17 34.0974 152.781 33.929 153.472 33.929H155.066C155.717 33.929 156.288 34.0764 156.78 34.3712C157.281 34.6661 157.666 35.082 157.937 35.6191C158.218 36.1561 158.358 36.7722 158.358 37.4672H157.276C157.276 36.7195 157.07 36.1193 156.659 35.6665C156.258 35.2031 155.727 34.9715 155.066 34.9715H153.472C152.761 34.9715 152.19 35.2453 151.759 35.7928C151.328 36.3299 151.112 37.046 151.112 37.941V41.2265C151.112 42.1216 151.323 42.8429 151.744 43.3905C152.165 43.9276 152.721 44.1961 153.412 44.1961H155.036C155.717 44.1961 156.263 43.9434 156.674 43.4379C157.095 42.9324 157.306 42.269 157.306 41.4477H158.388C158.388 42.1953 158.248 42.8587 157.967 43.4379C157.686 44.0066 157.291 44.4488 156.78 44.7647C156.278 45.0807 155.697 45.2386 155.036 45.2386H153.412ZM161.201 45.1122C160.891 45.1122 160.65 45.0227 160.48 44.8437C160.309 44.6647 160.224 44.412 160.224 44.0855V34.0553H161.337V44.0697H167.049V45.1122H161.201ZM174.604 42.0479H169.989L168.906 45.1122H167.764L171.808 34.0553H172.319C172.649 34.0553 172.89 34.2659 173.04 34.6871L175.355 41.0686H175.37V41.1002L176.828 45.1122H175.686L174.604 42.0479ZM170.335 41.0686H174.258L172.304 35.5717H172.289L170.335 41.0686ZM180.795 45.2386C180.194 45.2386 179.663 45.107 179.202 44.8437C178.741 44.57 178.38 44.1909 178.12 43.7064C177.869 43.2115 177.744 42.6429 177.744 42.0005H178.826C178.826 42.6534 179.006 43.1852 179.367 43.5959C179.738 43.996 180.224 44.1961 180.825 44.1961H182.494C183.085 44.1961 183.561 44.0592 183.922 43.7854C184.283 43.5011 184.463 43.1325 184.463 42.6797V41.6688C184.463 41.3108 184.328 41.0054 184.057 40.7527C183.797 40.4999 183.436 40.3367 182.975 40.263L180.269 39.7891C179.507 39.6522 178.916 39.3679 178.495 38.9362C178.074 38.5044 177.864 37.9621 177.864 37.3092V36.4563C177.864 35.6875 178.135 35.0768 178.676 34.624C179.227 34.1606 179.953 33.929 180.855 33.929H182.554C183.406 33.929 184.092 34.2027 184.613 34.7503C185.135 35.2874 185.395 35.9982 185.395 36.8827H184.313C184.313 36.3036 184.152 35.8402 183.832 35.4927C183.511 35.1452 183.085 34.9715 182.554 34.9715H180.855C180.284 34.9715 179.828 35.1084 179.487 35.3822C179.147 35.6454 178.976 36.0034 178.976 36.4563V37.3092C178.976 37.6778 179.102 37.9884 179.352 38.2412C179.613 38.4939 179.968 38.6624 180.419 38.7466L183.11 39.2363C183.892 39.3837 184.498 39.668 184.929 40.0892C185.36 40.4999 185.576 41.0264 185.576 41.6688V42.6797C185.576 43.4485 185.295 44.0697 184.734 44.5436C184.172 45.0069 183.436 45.2386 182.524 45.2386H180.795ZM190.22 45.2386C189.618 45.2386 189.087 45.107 188.626 44.8437C188.165 44.57 187.805 44.1909 187.544 43.7064C187.293 43.2115 187.168 42.6429 187.168 42.0005H188.251C188.251 42.6534 188.431 43.1852 188.792 43.5959C189.163 43.996 189.649 44.1961 190.25 44.1961H191.918C192.51 44.1961 192.986 44.0592 193.346 43.7854C193.707 43.5011 193.888 43.1325 193.888 42.6797V41.6688C193.888 41.3108 193.752 41.0054 193.482 40.7527C193.221 40.4999 192.86 40.3367 192.399 40.263L189.694 39.7891C188.932 39.6522 188.341 39.3679 187.92 38.9362C187.499 38.5044 187.288 37.9621 187.288 37.3092V36.4563C187.288 35.6875 187.559 35.0768 188.1 34.624C188.651 34.1606 189.378 33.929 190.28 33.929H191.979C192.83 33.929 193.517 34.2027 194.038 34.7503C194.559 35.2874 194.82 35.9982 194.82 36.8827H193.737C193.737 36.3036 193.577 35.8402 193.256 35.4927C192.936 35.1452 192.51 34.9715 191.979 34.9715H190.28C189.709 34.9715 189.253 35.1084 188.912 35.3822C188.571 35.6454 188.401 36.0034 188.401 36.4563V37.3092C188.401 37.6778 188.526 37.9884 188.777 38.2412C189.037 38.4939 189.393 38.6624 189.844 38.7466L192.535 39.2363C193.316 39.3837 193.923 39.668 194.354 40.0892C194.785 40.4999 195 41.0264 195 41.6688V42.6797C195 43.4485 194.719 44.0697 194.158 44.5436C193.597 45.0069 192.86 45.2386 191.948 45.2386H190.22Z" fill="white"/>
<path d="M63.4481 9.09265C63.4481 10.6308 62.7001 12.3197 61.2041 14.1594C59.7081 15.999 57.4348 17.4919 54.3841 18.638C51.3628 19.7841 48.4148 20.3571 45.5401 20.3571C42.6948 20.3571 40.4361 19.98 38.7641 19.2261C35.0681 24.8056 19.9467 51.9682 18.832 53.1142C15.664 56.3714 11.88 58 7.48 58C4.98667 58 3.10933 57.3968 1.848 56.1905C0.616 55.0143 0 53.4761 0 51.5761C0 48.9523 1.02667 46.4793 3.08 44.157C5.33867 41.5935 8.184 40.3117 11.616 40.3117C13.024 40.3117 14.212 40.6435 15.18 41.307C16.148 41.9704 16.632 42.9808 16.632 44.3379C16.632 45.2427 16.1333 46.3284 15.136 47.5951C14.1387 48.8618 13.5227 49.4951 13.288 49.4951C13.2293 49.4951 13.2 49.4348 13.2 49.3142C13.2 49.1936 13.244 49.0729 13.332 48.9523C14.2707 47.5348 14.74 46.238 14.74 45.0618C14.74 43.8554 14.3733 42.9355 13.64 42.3022C12.936 41.6387 12.056 41.307 11 41.307C8.536 41.307 6.35067 42.468 4.444 44.7903C2.56667 47.0824 1.628 49.4047 1.628 51.7571C1.628 53.2651 2.08267 54.4865 2.992 55.4214C3.93067 56.3563 5.368 56.8238 7.304 56.8238C10.912 56.8238 14.0067 55.5722 16.588 53.069C18.084 51.6214 19.5947 49.5103 21.12 46.7356L37.6641 15.8332C39.5414 12.7269 41.7268 8.11248 44.2201 1.99019C43.9561 1.99019 43.6921 1.99019 43.4281 1.99019C39.4681 1.99019 35.4934 2.44257 31.5041 3.34735C27.5148 4.22196 24.4934 5.48864 22.4401 7.14739C21.5601 7.84105 21.1201 8.51963 21.1201 9.18313C21.1201 9.84659 21.4574 10.3895 22.1321 10.8117C22.8361 11.2038 23.6574 11.3998 24.5961 11.3998C25.5348 11.3998 26.6934 11.2189 28.0721 10.857C29.4801 10.4649 30.5361 9.95218 31.2401 9.31884C31.5334 9.07757 31.7388 8.95693 31.8561 8.95693C32.0908 8.95693 32.1348 9.07757 31.9881 9.31884C30.9321 10.5855 29.3334 11.5355 27.1921 12.1689C25.8721 12.5609 24.5668 12.757 23.2761 12.757C21.9854 12.757 20.9294 12.4704 20.1081 11.8974C19.2868 11.2942 18.8761 10.495 18.8761 9.4998C18.8761 8.47439 19.4041 7.44898 20.4601 6.42357C22.4548 4.43307 26.0188 2.95528 31.1521 1.99019C34.7894 1.32668 38.9694 0.994939 43.6921 0.994939C44.0734 0.994939 44.4694 0.994939 44.8801 0.994939C45.5254 0.421915 46.1121 0.135403 46.6401 0.135403C47.1681 0.135403 47.4321 0.346517 47.4321 0.768746C47.4321 0.859223 47.4174 0.964783 47.3881 1.08542C51.9348 1.41717 55.6161 2.2013 58.4321 3.43782C61.7761 4.88546 63.4481 6.7704 63.4481 9.09265ZM61.3801 8.64026C61.3801 6.74024 59.8841 5.18705 56.8921 3.98069C54.2814 2.92512 51.0108 2.29178 47.0801 2.08067L45.6721 6.60453C44.5574 9.43948 42.4161 13.3903 39.2481 18.457C39.5414 18.6079 40.0401 18.7737 40.7441 18.9547C41.9174 19.1657 42.8268 19.2713 43.4721 19.2713C45.7014 19.2713 48.2681 18.8038 51.1721 17.8689C54.0761 16.9038 56.4961 15.5165 58.4321 13.707C60.3974 11.8673 61.3801 10.1784 61.3801 8.64026ZM67.7443 29.1334C66.0136 29.1334 65.1483 28.0929 65.1483 26.0119C65.1483 24.8357 65.5443 23.5389 66.3363 22.1214C67.1576 20.6737 68.155 18.9848 69.3283 17.0546C65.5736 18.9848 62.171 21.8348 59.1203 25.6047C57.419 28.2286 56.4216 29.5405 56.1283 29.5405C55.2776 29.5405 54.8523 29.2842 54.8523 28.7714C54.8523 28.5 55.0283 28.0175 55.3803 27.3238C58.2256 22.1063 60.3816 18.2912 61.8483 15.8784C65.339 10.118 74.139 0.527787 75.5763 0.0452451C75.635 0.0150895 75.6936 6.86364e-06 75.7523 6.86364e-06C76.1336 6.86364e-06 76.3976 0.316677 76.5443 0.950018C76.4563 1.58336 68.595 10.3442 65.6323 14.2951C62.5523 18.3062 60.807 20.9301 60.3963 22.1666C61.4816 21.3523 63.3736 19.98 66.0723 18.0499C68.9763 15.9689 70.8976 14.9284 71.8363 14.9284C72.775 14.9284 73.2443 15.3055 73.2443 16.0594C73.2443 16.18 73.2296 16.2705 73.2003 16.3308C73.2003 16.361 72.1883 17.7785 70.1643 20.5833C68.1403 23.3881 67.1283 25.4539 67.1283 26.7809C67.1283 27.4746 67.3776 27.8214 67.8763 27.8214C69.4603 27.7611 71.8363 25.8008 75.0043 21.9404C75.2683 21.669 75.459 21.5333 75.5763 21.5333C75.723 21.5333 75.7963 21.6237 75.7963 21.8047C75.7963 22.4079 74.3443 24.0365 71.4403 26.6905C69.6216 28.3191 68.3896 29.1334 67.7443 29.1334ZM85.3433 19.7237C85.3433 20.7793 84.3606 22.5436 82.3953 25.0166C80.0779 27.942 78.0979 29.4048 76.4553 29.4048H75.7513C74.9886 29.4048 74.3873 28.9976 73.9473 28.1833C73.5953 27.6104 73.4193 26.977 73.4193 26.2833C73.4193 24.4738 74.6953 21.9404 77.2473 18.6832C79.8286 15.3959 81.9113 13.7522 83.4953 13.7522C84.9913 13.7522 85.7393 14.5665 85.7393 16.1951C85.7393 16.6174 85.6659 17.1602 85.5193 17.8237C85.5486 17.9142 85.8273 17.9594 86.3553 17.9594C86.8833 17.9594 87.6899 17.6729 88.7753 17.0999C88.7459 17.6126 87.5873 18.3515 85.2993 19.3166C85.3286 19.4372 85.3433 19.5729 85.3433 19.7237ZM82.4833 17.3713C81.4859 17.3713 80.0633 18.5776 78.2153 20.9904C76.3966 23.4032 75.4873 25.1825 75.4873 26.3286C75.4873 27.4746 75.8393 28.0476 76.5433 28.0476C77.8046 28.0476 79.4033 26.8714 81.3393 24.519C83.2753 22.1666 84.2433 20.4777 84.2433 19.4523C83.7739 19.1809 83.1873 18.4872 82.4833 17.3713ZM97.7183 14.7475L104.054 14.657C104.142 14.7174 104.186 14.7626 104.186 14.7927C104.186 15.0641 102.353 15.4412 98.6863 15.9237C95.0489 16.4062 93.0836 16.6927 92.7903 16.7832C92.2329 17.296 91.2063 18.8341 89.7103 21.3976C88.2143 23.9309 87.4663 25.7857 87.4663 26.9619C87.4663 28.0778 88.2143 28.6357 89.7103 28.6357C90.4143 28.6357 91.3383 28.4095 92.4823 27.9572C93.6263 27.5048 94.5063 27.0825 95.1223 26.6905C96.7649 25.6349 98.5249 24.0817 100.402 22.0309C100.813 21.6086 101.092 21.3976 101.238 21.3976C101.326 21.3976 101.37 21.488 101.37 21.669C101.37 21.8499 101.15 22.2118 100.71 22.7547C99.1849 24.6849 97.4689 26.2381 95.5623 27.4143C93.2743 28.8619 91.0889 29.5857 89.0063 29.5857C88.0969 29.5857 87.3489 29.3897 86.7623 28.9976C86.2049 28.5754 85.9263 27.7461 85.9263 26.5095C85.9263 25.273 86.4543 23.5841 87.5103 21.4428C88.5663 19.2713 89.3729 17.6579 89.9303 16.6023C89.5196 16.6927 89.1676 16.738 88.8743 16.738C88.0236 16.738 87.5983 16.3912 87.5983 15.6975C87.5983 15.1847 87.9503 14.8228 88.6543 14.6118C88.7423 14.6118 88.8743 14.5966 89.0503 14.5665H91.6023C92.1303 13.8728 92.7316 13.0736 93.4063 12.1689C94.2276 11.0831 94.7849 10.5403 95.0783 10.5403C95.3716 10.5403 95.7383 10.6609 96.1783 10.9022C96.6183 11.1435 96.8383 11.4299 96.8383 11.7617C96.8383 12.0935 96.1343 13.0736 94.7263 14.7022C95.4889 14.7324 96.4863 14.7475 97.7183 14.7475ZM113.949 15.788L114.565 15.6522C114.887 15.6522 115.195 15.788 115.489 16.0594C115.782 16.3308 115.929 16.5419 115.929 16.6927C115.929 16.8436 115.019 18.3062 113.201 21.0809C111.382 23.8253 110.473 25.7405 110.473 26.8262C110.473 26.9167 110.487 27.0071 110.517 27.0976C110.663 27.7913 110.986 28.1381 111.485 28.1381C113.01 28.1381 115.797 25.5444 119.845 20.3571C119.933 20.2365 120.035 20.1761 120.153 20.1761C120.27 20.1761 120.329 20.2967 120.329 20.538C120.329 20.7491 120.197 21.0356 119.933 21.3976C116.178 26.5548 113.318 29.1334 111.353 29.1334C111.089 29.1334 110.839 29.0881 110.605 28.9976C109.314 28.4849 108.669 27.4897 108.669 26.0119C108.669 25.4992 108.727 24.9865 108.845 24.4738L106.117 27.1881C104.386 28.7563 103.125 29.5405 102.333 29.5405C101.57 29.5405 100.837 29.2842 100.133 28.7714C99.3408 28.1682 98.9448 27.369 98.9448 26.3738C98.9448 24.1722 100.441 21.5484 103.433 18.5023C106.425 15.4261 109.167 13.8879 111.661 13.8879C112.629 13.8879 113.274 14.2347 113.597 14.9284C113.685 15.1697 113.758 15.3808 113.817 15.5618C113.875 15.7126 113.919 15.788 113.949 15.788ZM100.793 26.9167C100.793 28.0024 101.159 28.5453 101.893 28.5453C103.594 28.5453 105.911 26.6301 108.845 22.7999L113.509 16.1951C113.274 15.7729 112.893 15.5618 112.365 15.5618C110.575 15.5618 108.199 16.9943 105.237 19.8594C102.274 22.6944 100.793 25.0468 100.793 26.9167ZM132.125 15.5165L132.741 15.3808C133.123 15.3808 133.416 15.5014 133.621 15.7427C133.856 15.984 133.973 16.18 133.973 16.3308C133.973 16.4514 133.959 16.6023 133.929 16.7832C133.9 16.934 133.475 17.688 132.653 19.0451C131.627 20.8848 130.776 22.438 130.101 23.7047C127.725 28.2587 117.411 50.792 116.149 52.4809C113.451 56.1603 110.884 58 108.449 58C107.599 58 106.865 57.623 106.249 56.869C105.604 56.1452 105.267 55.3309 105.237 54.4262C105.325 54.0642 105.457 53.8833 105.633 53.8833C105.721 53.8833 105.795 53.9889 105.853 54.2C106 54.9841 106.279 55.5872 106.689 56.0095C107.1 56.4318 107.511 56.6428 107.921 56.6428C109.593 56.6428 111.383 55.5119 113.289 53.25C114.551 51.742 124.44 30.1286 125.965 27.2333L128.165 22.7547L124.865 26.1928C122.753 28.2738 121.301 29.3143 120.509 29.3143C119.747 29.3143 119.013 29.0429 118.309 28.5C117.517 27.8968 117.121 27.0976 117.121 26.1024C117.121 23.9008 118.617 21.277 121.609 18.2309C124.631 15.1847 127.373 13.6618 129.837 13.6618C130.835 13.6618 131.48 13.9935 131.773 14.657C131.861 14.8983 131.935 15.1094 131.993 15.2903C132.052 15.4412 132.096 15.5165 132.125 15.5165ZM118.969 26.6452C118.969 27.731 119.336 28.2738 120.069 28.2738C121.771 28.2738 124.088 26.3587 127.021 22.5285L131.685 15.9237C131.509 15.5014 131.143 15.2903 130.585 15.2903C128.767 15.2903 126.376 16.738 123.413 19.6332C120.451 22.4984 118.969 24.8357 118.969 26.6452ZM135.959 29.9024C135.636 29.9024 135.343 29.8572 135.079 29.7667C133.201 29.2238 132.263 28.1381 132.263 26.5095C132.263 24.3984 133.553 21.9555 136.135 19.1809C138.716 16.4062 141.033 15.0189 143.087 15.0189C143.761 15.0189 144.304 15.215 144.715 15.607C145.155 15.9689 145.375 16.4213 145.375 16.9642C145.375 18.6531 144.128 20.2666 141.635 21.8047C139.171 23.3428 137.161 24.1119 135.607 24.1119C135.372 24.1119 135.167 24.0817 134.991 24.0214C134.551 24.8357 134.331 25.6952 134.331 26.6C134.331 28.1682 135.049 28.9524 136.487 28.9524C137.953 28.9524 139.845 27.942 142.163 25.9214C143.952 24.4437 145.477 22.8753 146.739 21.2166C147.003 20.8547 147.223 20.6737 147.399 20.6737C147.604 20.6737 147.707 20.7642 147.707 20.9452C147.707 21.1261 147.589 21.3824 147.355 21.7142C145.771 23.8556 143.864 25.7556 141.635 27.4143C139.405 29.073 137.513 29.9024 135.959 29.9024ZM144.275 16.8737C144.275 16.5118 143.893 16.3308 143.131 16.3308C142.397 16.3308 141.341 16.9189 139.963 18.0951C138.115 19.6634 136.677 21.3071 135.651 23.0261C135.827 23.0865 136.017 23.1166 136.223 23.1166C137.337 23.1166 138.819 22.5134 140.667 21.3071C142.544 20.0705 143.717 18.7285 144.187 17.2808C144.245 17.13 144.275 16.9943 144.275 16.8737Z" fill="white"/>
<path d="M193 16.4504H190C189.448 16.4504 189 16.8981 189 17.4504V19.563C189 20.1153 189.448 20.563 190 20.563H193C193.552 20.563 194 20.1153 194 19.563V17.4504C194 16.8981 193.552 16.4504 193 16.4504Z" fill="white"/>
<path fill-rule="evenodd" clip-rule="evenodd" d="M143.028 12.3378H200.973C201.541 12.3378 202.001 11.8775 202.001 11.3097C202.001 10.7418 201.541 10.2815 200.973 10.2815H180.25C178.772 10.2815 177.315 9.92905 176.001 9.25337L175.78 9.13962C174.611 8.53869 173.315 8.22522 172.001 8.22522C170.687 8.22522 169.391 8.53869 168.222 9.13962L168.001 9.25337C166.687 9.92905 165.23 10.2815 163.752 10.2815H143.028C142.46 10.2815 142 10.7418 142 11.3097C142 11.8775 142.46 12.3378 143.028 12.3378ZM172.001 15.4223C168.687 15.4223 166.001 18.1842 166.001 21.5912C166.001 24.9982 168.687 27.7601 172.001 27.7601C175.315 27.7601 178.001 24.9982 178.001 21.5912C178.001 18.1842 175.315 15.4223 172.001 15.4223ZM172.001 13.366C167.583 13.366 164.001 17.0485 164.001 21.5912C164.001 26.1338 167.583 29.8164 172.001 29.8164C176.419 29.8164 180.001 26.1338 180.001 21.5912C180.001 17.0485 176.419 13.366 172.001 13.366Z" fill="white"/>
<path fill-rule="evenodd" clip-rule="evenodd" d="M172 16.4504C169.239 16.4504 167 18.752 167 21.5911C167 24.4303 169.239 26.7319 172 26.7319C174.761 26.7319 177 24.4303 177 21.5911C177 18.752 174.761 16.4504 172 16.4504ZM168.501 21.3913C168.501 20.262 168.979 19.2478 169.739 18.5524C168.69 19.2438 168.001 20.4523 168.001 21.8157C168.001 23.9414 169.677 25.6905 171.776 25.6905C173.133 25.6905 174.314 24.9589 174.979 23.8669C174.303 24.6758 173.302 25.1879 172.185 25.1879C170.15 25.1879 168.501 23.4881 168.501 21.3913Z" fill="white"/>
</svg>
