<svg width="700" height="185" viewBox="0 0 700 185" fill="none" xmlns="http://www.w3.org/2000/svg">
<path fill-rule="evenodd" clip-rule="evenodd" d="M10.5304 182.533C13.4662 182.533 15.9551 181.217 17.9974 178.587C20.0396 175.956 21.0607 172.749 21.0607 168.967V101.873C21.0607 100.393 21.6351 99.6533 22.7839 99.6533H70.2663C72.5638 99.6533 74.4784 98.6667 76.0101 96.6933C77.6694 94.5556 78.4991 92.0067 78.4991 89.0467C78.4991 86.0867 77.6694 83.62 76.0101 81.6467C74.4784 79.5089 72.5638 78.44 70.2663 78.44H22.7839C21.6351 78.44 21.0607 77.7 21.0607 76.22V26.64C21.0607 25.3244 21.6351 24.6667 22.7839 24.6667H73.7126C76.1377 24.6667 78.18 23.5977 79.8393 21.46C81.4986 19.3223 82.3283 16.6911 82.3283 13.5667C82.3283 10.4422 81.4986 7.81111 79.8393 5.67334C78.18 3.53555 76.1377 2.46667 73.7126 2.46667H10.9133C7.97755 2.46667 5.42474 3.86444 3.25484 6.65998C1.08494 9.45555 0 12.7444 0 16.5267V168.967C0 172.749 1.02113 175.956 3.06338 178.587C5.10563 181.217 7.59462 182.533 10.5304 182.533ZM162.615 22.2C175.634 22.2 185.654 28.12 192.674 39.96C199.823 51.6356 203.396 69.149 203.396 92.5C203.396 115.851 199.823 133.447 192.674 145.287C185.654 156.962 175.634 162.8 162.615 162.8C149.595 162.8 139.512 156.962 132.364 145.287C125.344 133.447 121.834 115.851 121.834 92.5C121.834 69.149 125.344 51.6356 132.364 39.96C139.512 28.12 149.595 22.2 162.615 22.2ZM162.615 185C181.761 185 196.886 176.86 207.991 160.58C219.223 144.3 224.84 121.607 224.84 92.5C224.84 63.3933 219.223 40.7 207.991 24.42C196.886 8.14 181.761 0 162.615 0C143.469 0 128.28 8.14 117.047 24.42C105.942 40.7 100.39 63.3933 100.39 92.5C100.39 121.607 105.942 144.3 117.047 160.58C128.28 176.86 143.469 185 162.615 185ZM303.033 22.2C316.052 22.2 326.071 28.12 333.092 39.96C340.239 51.6356 343.814 69.149 343.814 92.5C343.814 115.851 340.239 133.447 333.092 145.287C326.071 156.962 316.052 162.8 303.033 162.8C290.013 162.8 279.929 156.962 272.782 145.287C265.76 133.447 262.251 115.851 262.251 92.5C262.251 69.149 265.76 51.6356 272.782 39.96C279.929 28.12 290.013 22.2 303.033 22.2ZM303.033 185C322.179 185 337.304 176.86 348.409 160.58C359.641 144.3 365.257 121.607 365.257 92.5C365.257 63.3933 359.641 40.7 348.409 24.42C337.304 8.14 322.179 0 303.033 0C283.886 0 268.697 8.14 257.465 24.42C246.36 40.7 240.808 63.3933 240.808 92.5C240.808 121.607 246.36 144.3 257.465 160.58C268.697 176.86 283.886 185 303.033 185ZM378.007 21.9533C379.795 24.0911 381.901 25.16 384.326 25.16H413.045C414.194 25.16 414.768 25.9 414.768 27.38V168.967C414.768 172.749 415.789 175.956 417.831 178.587C419.873 181.217 422.362 182.533 425.298 182.533C428.234 182.533 430.723 181.217 432.765 178.587C434.807 175.956 435.829 172.749 435.829 168.967V27.38C435.829 25.9 436.403 25.16 437.552 25.16H466.271C468.696 25.16 470.739 24.0911 472.398 21.9533C474.185 19.6511 475.078 16.9377 475.078 13.8133C475.078 10.6889 474.185 8.05777 472.398 5.92C470.739 3.61777 468.696 2.46667 466.271 2.46667H384.326C381.901 2.46667 379.795 3.61777 378.007 5.92C376.348 8.05777 375.518 10.6889 375.518 13.8133C375.518 16.9377 376.348 19.6511 378.007 21.9533ZM507.227 110.311L527.048 27.38C527.048 27.2156 527.112 27.1333 527.239 27.1333C527.368 27.1333 527.431 27.2156 527.431 27.38L547.534 111.493C547.53 111.498 547.526 111.504 547.522 111.509L553.242 135.734C553.359 135.993 553.435 136.299 553.469 136.653L561.128 169.213C562.149 173.16 563.937 176.367 566.489 178.833C569.169 181.3 572.105 182.533 575.296 182.533H576.062C578.742 182.533 580.848 181.136 582.38 178.34C584.04 175.544 584.423 172.502 583.529 169.213L542.556 15.7867C541.536 11.84 539.684 8.63332 537.004 6.16667C534.452 3.7 531.516 2.46667 528.196 2.46667H527.048C523.857 2.46667 520.921 3.7 518.24 6.16667C515.56 8.63332 513.71 11.84 512.688 15.7867L471.715 169.213C470.822 172.502 471.141 175.544 472.673 178.34C474.333 181.136 476.502 182.533 479.182 182.533C482.501 182.533 485.438 181.3 487.99 178.833C490.67 176.367 492.457 173.16 493.35 169.213L500.574 138.501H500.56L507.221 110.311H507.227ZM607.716 159.84C620.225 176.613 636.308 185 655.964 185C668.6 185 679.897 182.944 689.853 178.833C692.916 177.517 695.341 175.133 697.128 171.68C699.043 168.062 700 164.116 700 159.84V90.0333C700 86.2511 698.916 82.9623 696.745 80.1667C694.575 77.3711 692.023 75.9733 689.087 75.9733H646.965C644.668 75.9733 642.689 77.0423 641.03 79.18C639.498 81.1533 638.732 83.62 638.732 86.58C638.732 89.54 639.498 92.089 641.03 94.2267C642.689 96.2 644.668 97.1867 646.965 97.1867H678.173C679.322 97.1867 679.897 97.9267 679.897 99.4067V156.88C679.897 158.36 679.449 159.182 678.556 159.347C671.919 161.978 665.027 163.293 657.879 163.293C643.583 163.293 632.096 157.044 623.416 144.547C614.735 131.884 610.396 114.536 610.396 92.5C610.396 69.4777 614.8 51.9644 623.607 39.96C632.541 27.7911 645.242 21.7067 661.708 21.7067C670.259 21.7067 677.918 22.7756 684.683 24.9133C686.853 25.5711 688.831 25.0777 690.618 23.4333C692.406 21.6244 693.299 19.3223 693.299 16.5267C693.299 13.0733 692.469 10.0311 690.81 7.39998C689.151 4.76888 687.045 3.12444 684.492 2.46667C676.96 0.822221 668.728 0 659.793 0C637.839 0 620.544 8.30444 607.907 24.9133C595.271 41.3577 588.953 63.8867 588.953 92.5C588.953 120.62 595.206 143.067 607.716 159.84Z" fill="url(#paint0_linear)"/>
<defs>
<linearGradient id="paint0_linear" x1="-0.656417" y1="92.6762" x2="699.545" y2="92.6762" gradientUnits="userSpaceOnUse">
<stop stop-color="#828282"/>
<stop offset="1" stop-color="white"/>
</linearGradient>
</defs>
</svg>
