<svg width="140" height="140" viewBox="0 0 140 140" fill="none" xmlns="http://www.w3.org/2000/svg">
<circle cx="70" cy="70" r="69.5" stroke="white"/>
<path d="M68.868 63.6365C68.8091 64.4678 68.3824 65.9121 69.1067 66.5671C69.4173 66.8482 69.8581 66.9188 70.2675 66.8948C70.4803 66.8821 70.7092 66.7654 70.913 66.7772C71.9683 66.8372 71.3623 67.4959 70.8931 67.7812C70.1408 68.2382 70.8355 69.3931 71.5924 68.9332C72.6537 68.2876 73.6128 66.9201 72.5503 65.8215C72.093 65.3485 71.4759 65.3077 70.8499 65.4215C70.7007 65.4489 70.4027 65.5897 70.2557 65.5313C70.0497 65.4497 70.1349 65.3171 70.1531 65.0596C70.1866 64.5854 70.2201 64.1107 70.2536 63.6365C70.3142 62.7795 68.9282 62.7832 68.868 63.6365Z" fill="white"/>
<path d="M82.3642 59.8229C82.3142 62.2347 82.2234 64.6445 82.0717 67.0523C81.9115 69.5915 82.1264 72.6579 80.0552 74.549C78.8396 75.6586 77.4881 76.3732 76.5226 77.7216C74.9167 79.964 73.958 82.5697 70.5216 82.5697C67.134 82.5697 66.1308 79.9677 64.5211 77.7216C63.5595 76.3797 62.1973 75.6525 60.9885 74.549C58.9088 72.6501 59.1339 69.6062 58.972 67.0523C58.8194 64.6445 58.7296 62.2343 58.6795 59.8229C58.6613 58.9651 57.2758 58.9622 57.2936 59.8229C57.3653 63.2623 57.4738 66.7197 57.8132 70.1457C58.0192 72.2265 58.3757 74.0038 60.0087 75.4925C61.1148 76.5009 62.416 77.1621 63.3247 78.3949C64.0146 79.3311 64.4169 80.4399 65.1687 81.3414C66.4512 82.8795 68.4534 83.8932 70.5216 83.9042C72.5895 83.9152 74.5912 82.8591 75.875 81.3414C76.6332 80.4448 77.0354 79.3356 77.719 78.3949C78.526 77.2853 79.6975 76.596 80.7418 75.7276C82.4451 74.3111 82.9711 72.644 83.1936 70.5411C83.5699 66.9874 83.6755 63.3925 83.7501 59.8229C83.7679 58.9638 82.3824 58.9638 82.3642 59.8229Z" fill="white"/>
<path d="M57.1064 60.0919C58.5262 60.4576 62.1919 60.7816 62.7106 58.8003C63.087 57.3626 60.8251 56.5145 59.6875 56.4203C59.8041 56.8345 59.9206 57.2491 60.0372 57.6633C62.9222 55.9755 65.5342 53.4881 68.8171 52.5291C71.2393 51.8215 73.8717 52.0512 73.8513 55.1172C73.845 56.0542 73.3343 57.1022 73.2207 58.0527C72.7685 61.8459 76.574 61.8582 78.8639 59.5867C78.5011 59.3174 78.1383 59.048 77.7755 58.7783C76.9809 60.518 76.8092 64.0264 79.8557 63.3697C82.3999 62.8213 84.1278 59.3663 84.3745 57.1263C84.4686 56.2734 83.0823 56.2795 82.989 57.1263C82.8538 58.3506 82.2397 59.4847 81.4811 60.4547C81.2539 60.7449 80.7567 61.4998 80.3473 61.6072C79.1064 61.9328 78.4498 60.5947 78.972 59.4516C79.2687 58.8032 78.4749 58.0572 77.884 58.6432C77.3081 59.7071 76.5613 59.8936 75.6446 59.2027C74.6901 59.2561 74.3379 58.955 74.5884 58.3C74.4977 57.7939 74.7787 57.1051 74.8965 56.599C75.058 55.9044 75.3614 55.1699 75.3877 54.4541C75.4432 52.9298 74.496 51.7321 73.0579 51.1603C68.1844 49.2239 63.0582 54.3349 59.3379 56.5113C58.7191 56.8733 59.023 57.6993 59.6875 57.7543C60.6043 57.8307 61.8058 58.3489 60.169 58.957C59.3963 59.2439 58.2224 58.9978 57.4747 58.8056C56.6122 58.5836 56.2443 59.8703 57.1064 60.0919Z" fill="white"/>
<path d="M57.2896 53.7962C58.4098 51.6328 57.819 48.6378 55.3002 47.6147C53.0904 46.7173 51.7888 47.94 51.7129 49.9601C51.6621 51.3035 52.1363 52.1764 52.3648 53.4076C52.8886 56.2329 50.5237 56.7271 50.0494 59.012C49.3064 62.5882 52.5008 65.009 55.4375 66.3937C56.2351 66.7699 56.9383 65.6195 56.1368 65.2416C53.9342 64.203 51.0789 62.5041 51.3344 59.7495C51.5302 57.6351 53.7511 57.1295 54.1355 55.249C54.4199 53.859 53.3455 52.649 53.1484 51.3353C53.0742 50.8424 52.8645 49.365 53.1836 48.9537C54.848 48.6513 55.9016 49.2124 56.3449 50.6375C56.6403 51.488 56.5564 52.3164 56.0927 53.1224C55.696 53.8888 56.8912 54.5654 57.2896 53.7962Z" fill="white"/>
<path d="M58.055 51.2387C58.2402 47.8483 63.221 48.0356 65.6339 47.1651C66.885 46.7137 68.0747 46.1094 69.0762 45.2491C70.1455 44.3309 71.0033 43.3767 72.1981 42.5748C72.6791 42.252 73.2246 41.8325 73.7832 41.6309C76.4185 40.6809 76.0286 43.8571 74.8194 45.4727C74.3575 46.0898 75.3763 46.8288 75.9074 46.2812C76.5126 45.6568 77.7752 43.2474 78.5394 43.0695C80.0817 42.7095 80.4262 45.276 80.4296 46.1126C80.4347 47.2969 80.0583 48.4335 79.5531 49.4986C79.1857 50.274 80.3796 50.9531 80.7496 50.172C81.7299 48.1049 82.8132 43.764 80.3605 42.0798C77.6438 40.214 76.2579 43.9656 74.9279 45.3376C75.2903 45.607 75.6531 45.8767 76.0159 46.1461C77.3179 44.4068 78.5364 41.6934 76.0168 40.3217C74.1587 39.3101 72.1625 40.9139 70.7287 41.9688C69.859 42.6087 69.1847 43.3347 68.3981 44.0509C66.7452 45.556 64.5883 46.1665 62.4217 46.6256C59.6435 47.2149 56.8403 48.1062 56.6691 51.2387C56.6225 52.0969 58.008 52.0945 58.055 51.2387Z" fill="white"/>
<path d="M80.8673 48.1887C81.8997 47.8818 83.089 47.4717 84.1782 47.5354C86.3507 47.6627 87.1395 49.8868 86.7864 51.7143C86.6508 52.4166 86.3211 52.7921 86.5258 53.505C86.6 53.7633 86.9038 53.818 87.0424 54.018C88.0151 55.4218 88.9403 55.9213 88.3851 57.8777C87.718 60.2263 85.2225 61.5951 83.2013 62.7627C82.4376 63.2038 83.1335 64.3579 83.9006 63.9147C86.2685 62.5472 88.8962 60.9495 89.721 58.2324C90.016 57.2615 90.0173 56.2556 89.7028 55.2925C89.3959 54.353 88.5199 53.898 88.1677 53.092C87.7693 52.1803 88.5652 50.8291 88.4402 49.6709C88.3448 48.7813 87.9842 47.9488 87.3065 47.3236C85.4416 45.6022 82.663 46.2584 80.499 46.902C79.6497 47.155 80.012 48.4434 80.8673 48.1887Z" fill="white"/>
<path d="M83.7447 67.3234C85.7074 65.2572 88.0334 68.0796 87.9486 70.0792C87.8541 72.3058 84.9433 73.6101 82.8979 72.7029C82.0935 72.3458 81.3886 73.4958 82.1986 73.8549C85.3908 75.2706 89.4867 73.2248 89.3333 69.6911C89.2006 66.6345 85.4328 63.5713 82.7648 66.3798C82.1638 67.0128 83.1412 67.9588 83.7447 67.3234Z" fill="white"/>
<path d="M88.7202 70.3741C86.9304 69.009 84.5786 68.7743 82.5641 69.8427C81.7826 70.2574 82.4811 71.4098 83.2635 70.9948C84.6879 70.2394 86.4515 70.3345 87.7403 71.3176C88.432 71.8457 89.4191 70.9075 88.7202 70.3741Z" fill="white"/>
<path d="M82.8864 70.9753C83.3271 71.3679 83.6628 71.8128 83.9218 72.3343C84.0833 72.6596 84.566 72.7448 84.8699 72.5739C85.2148 72.3792 85.2806 71.987 85.1182 71.6609C84.8139 71.048 84.3842 70.4934 83.8662 70.0318C83.2123 69.4495 82.2303 70.3905 82.8864 70.9753Z" fill="white"/>
<path d="M58.717 66.3798C56.0579 63.5807 52.2702 66.6267 52.1485 69.6911C52.0083 73.2216 56.0825 75.2743 59.2832 73.8549C60.0923 73.4962 59.3892 72.3458 58.5839 72.7029C56.5254 73.6158 53.6447 72.2985 53.5332 70.0792C53.4332 68.0853 55.7752 65.258 57.7371 67.3234C58.3407 67.9584 59.3184 67.0128 58.717 66.3798Z" fill="white"/>
<path d="M53.7412 71.3176C55.0293 70.3353 56.7932 70.239 58.2181 70.9948C58.9996 71.4094 59.6998 70.2578 58.9174 69.8428C56.903 68.7744 54.5512 69.009 52.7614 70.3741C52.0629 70.9071 53.0491 71.8457 53.7412 71.3176Z" fill="white"/>
<path d="M57.6153 70.0319C57.0974 70.4935 56.6677 71.0481 56.3634 71.661C56.2019 71.9859 56.2701 72.3813 56.6117 72.5739C56.9143 72.7441 57.3975 72.6609 57.5598 72.3344C57.8188 71.8128 58.1544 71.368 58.5952 70.9754C59.2513 70.391 58.2693 69.4491 57.6153 70.0319Z" fill="white"/>
<path d="M66.536 73.4099C68.3978 74.2951 70.3407 74.5799 72.3937 74.3041C73.2731 74.1861 72.8989 72.9002 72.0254 73.0173C70.3707 73.2397 68.7305 72.9684 67.2357 72.2579C66.4385 71.8792 65.7358 73.0296 66.536 73.4099Z" fill="white"/>
<path d="M62.2926 60.3582C63.548 59.9424 64.8466 59.9722 66.0528 60.5259C66.8538 60.894 67.5578 59.7436 66.7521 59.3739C65.2174 58.6691 63.5404 58.5361 61.9243 59.0715C61.086 59.3494 61.4462 60.6386 62.2926 60.3582Z" fill="white"/>
<path d="M64.3083 80.2754C64.822 82.8774 64.688 84.7228 62.6287 86.5964C61.1622 87.9304 59.6013 89.4016 57.686 90.0876C57.2609 90.2398 57.0452 90.663 57.2719 91.0679C59.8844 95.7267 65.0288 100.497 70.9149 99.9582C73.1374 99.7549 75.1887 98.8327 76.9815 97.5831C79.1346 96.083 82.4472 93.3679 83.3766 90.8904C83.9055 89.4796 82.8502 88.7132 81.6652 88.032C80.609 87.4256 79.2982 87.0228 78.4764 86.1034C77.1078 84.5722 77.2481 81.2626 77.0591 79.3266C76.9764 78.4789 75.5901 78.4708 75.6736 79.3266C75.8719 81.3597 75.7567 83.9629 76.6412 85.8479C77.4566 87.5852 79.1871 88.0741 80.7095 89.0494C81.1723 89.3457 82.0204 89.7587 82.0911 90.3921C82.1645 91.0471 80.3721 92.5826 80.0216 92.9782C79.0384 94.087 77.9818 95.1264 76.7963 96.0347C74.898 97.4897 72.6386 98.6323 70.1609 98.6711C65.0763 98.7503 60.7342 94.435 58.4684 90.3941C58.3302 90.721 58.1925 91.0475 58.0543 91.3744C60.6159 90.4565 63.0538 88.3573 64.819 86.3866C66.4236 84.5955 66.0761 82.1053 65.6446 79.9207C65.478 79.078 64.1422 79.4351 64.3083 80.2754Z" fill="white"/>
<path d="M66.0115 65.236C66.0115 65.7506 65.5784 66.1677 65.0439 66.1677C64.5091 66.1677 64.0759 65.7506 64.0759 65.236C64.0759 64.721 64.5091 64.3039 65.0439 64.3039C65.5784 64.3039 66.0115 64.721 66.0115 65.236Z" fill="white"/>
<path d="M76.0418 65.236C76.0418 65.7506 75.6087 66.1677 75.0742 66.1677C74.5394 66.1677 74.1062 65.7506 74.1062 65.236C74.1062 64.721 74.5394 64.3039 75.0742 64.3039C75.6087 64.3039 76.0418 64.721 76.0418 65.236Z" fill="white"/>
<path d="M77.9857 86.5752L77.9526 86.5364C74.9481 87.6509 71.8457 88.3757 68.6704 88.068C66.8937 87.8958 65.1616 87.3963 63.5459 86.6596C62.6364 87.5089 61.6998 88.3304 60.7211 89.1025C59.8582 89.7836 58.9402 90.4484 57.8696 90.7312C57.8696 90.7312 68.6056 110.101 82.6889 90.7288C83.9158 89.0409 79.3652 88.1463 77.9857 86.5752Z" fill="white"/>
<path d="M71.4924 82.8247C71.5208 82.1828 71.5496 81.5413 71.5784 80.9001C71.617 80.0415 70.2311 80.0431 70.1925 80.9001C70.1641 81.5413 70.1353 82.1828 70.1065 82.8247C70.0683 83.6829 71.4538 83.6813 71.4924 82.8247Z" fill="white"/>
</svg>
